<svg width="120" height="150" viewBox="0 0 120 150" fill="none" xmlns="http://www.w3.org/2000/svg">
<path d="M9.58238 69.701C8.29148 69.9424 6.97518 70.0178 5.64776 69.9257C4.80542 69.867 3.93767 69.7526 3.12471 69.5105C2.74204 69.4049 2.29507 69.2366 2.02832 68.9309C3.95752 67.2828 6.88705 68.3673 8.92661 69.3771C9.14255 69.4851 9.3585 69.5931 9.58238 69.701Z" fill="#C2CAC2"/>
<path d="M119.972 54.6517C120.009 54.4207 119.958 54.215 119.86 54.0578C119.842 53.8911 119.784 53.7252 119.655 53.5688C117.205 50.6432 115.188 47.362 113.691 43.8593C112.934 42.092 112.336 40.2589 111.839 38.4003C111.377 36.676 110.954 34.9198 110.121 33.328C107.105 27.5762 98.9026 27.4833 95.0767 32.4071C93.4325 34.5118 92.6434 36.9848 92.2043 39.5475C91.2961 39.9024 90.2728 39.9254 89.3312 39.6452C88.4222 39.3729 87.579 38.7338 87.0598 37.9796C86.9622 37.8382 86.8335 37.7287 86.6898 37.6596C85.3465 32.7009 84.5796 27.5515 83.3388 22.5833C81.5588 15.5111 78.5364 8.1317 72.4677 3.68819C66.1911 -0.911732 57.774 -0.922048 50.8321 2.12577C43.5742 5.31332 38.3526 11.925 35.2579 19.0535C32.2633 25.9423 31.1502 33.3582 30.6167 40.8059C30.5699 40.8781 30.5318 40.9583 30.5008 41.0457C30.4778 41.1092 30.4627 41.1655 30.4397 41.2211C30.4318 41.237 30.3857 41.3569 30.3857 41.3569C30.3246 41.5006 30.2547 41.6442 30.1856 41.7887C30.0547 42.0444 29.9157 42.3008 29.7601 42.5414C29.6744 42.67 29.5894 42.8057 29.4957 42.9344C29.4799 42.9582 29.4799 42.9502 29.4727 42.9661C29.4648 42.9741 29.4648 42.9741 29.4418 43.0066C29.3949 43.063 29.3481 43.1273 29.2933 43.1916C29.1059 43.425 28.9027 43.6417 28.6836 43.8513C28.5819 43.9561 28.4803 44.053 28.37 44.1498C28.3073 44.1983 28.2525 44.2546 28.1898 44.3031C28.1818 44.311 28.127 44.3515 28.0961 44.384C27.8682 44.5619 27.6245 44.7246 27.3808 44.8786C27.1212 45.0335 26.8615 45.1803 26.5853 45.3113C26.5297 45.3359 26.4749 45.3605 26.4114 45.3852C26.4035 45.3931 26.301 45.4344 26.2772 45.4423C26.1351 45.5003 25.9851 45.5495 25.835 45.5995C25.7874 45.6162 25.7405 45.6329 25.6929 45.6575C24.9895 44.2705 24.4584 42.7224 23.5755 41.5204C21.6146 38.8656 18.4509 38.6107 15.4538 39.4491C12.4092 40.2962 9.65035 42.1786 7.74179 44.6841C5.46724 47.6637 4.76622 51.2704 4.08901 54.8613C3.21254 59.4715 1.90496 63.977 0.0877025 68.307C-0.0655223 68.6666 0.0424518 69.0064 0.259983 69.2414C0.284595 69.297 0.325081 69.3438 0.36557 69.3906C1.12058 71.0229 3.29272 71.3405 4.90674 71.5231C7.1416 71.7755 9.40901 71.5675 11.5676 70.9404C11.6701 70.907 11.7653 70.8657 11.836 70.8173L11.8439 70.8093C11.8757 70.8006 11.9074 70.7847 11.9384 70.7601C12.2576 70.8824 12.5775 70.9967 12.9038 71.0952H12.9117C12.9284 71.1666 12.9618 71.2293 13.0022 71.3C14.3035 73.4007 16.5955 74.2962 18.8454 75.0171C19.1074 78.7929 19.0923 82.5719 18.7986 86.3398C18.666 86.5081 18.6215 86.7312 18.7128 87.0004C19.286 88.739 20.2149 90.3205 21.505 91.636C22.4966 92.6459 23.6819 93.3667 24.8918 94.0709C25.9231 97.7713 26.7012 101.531 27.1624 105.344C27.1084 105.456 27.0791 105.599 27.0894 105.757C27.2363 108.177 28.9162 110.074 31.028 111.13C32.5317 111.878 34.1631 112.132 35.8081 112.243C35.8169 112.29 35.8018 112.338 35.8184 112.394C36.5282 115.281 36.8974 118.23 36.9331 121.206C36.9371 121.468 37.0673 121.681 37.2602 121.828C37.8858 123.892 39.8674 125.236 41.8696 125.889C44.4943 126.747 47.7152 126.541 49.8484 128.535C50.2668 128.933 50.5352 129.35 50.709 129.8C50.7114 129.959 50.7527 130.093 50.8257 130.203C51.0282 130.986 51.0004 131.836 51.0615 132.749C51.1512 134.01 51.5426 135.203 52.2254 136.265C52.8835 137.295 53.7219 138.14 54.6619 138.873C54.3713 142.307 54.0887 145.75 53.7981 149.184C53.7306 149.995 55.0462 150.333 55.3685 149.574C56.0965 147.816 57.9019 146.94 59.161 145.612C60.0994 144.621 60.7695 143.238 60.6305 141.898C61.3069 140.379 62.2152 139.008 63.3894 137.823C64.6493 136.574 66.1141 135.75 67.6495 134.894C68.8856 134.201 70.1448 133.412 70.9283 132.194C71.9842 130.55 71.592 128.746 71.3825 126.931C71.3285 126.471 71.3213 126.035 71.3555 125.621C71.3785 125.549 71.3928 125.469 71.392 125.39L71.3912 125.318C71.8588 122.056 75.0225 120.128 78.0457 118.916C81.3294 117.597 85.2282 116.539 86.9082 113.091C87.6092 111.66 87.8871 110.004 88.2364 108.395C88.3618 108.267 88.4301 108.091 88.4428 107.876C88.4483 107.725 88.4547 107.582 88.4603 107.432C88.8128 106.053 89.2939 104.751 90.2553 103.689C90.4133 103.647 90.5625 103.549 90.688 103.397C93.9001 99.4116 91.5526 94.2059 91.8987 89.6671C92.0916 87.1631 93.3849 85.4371 95.4372 84.097C97.1909 82.9355 99.0979 82.0027 100.544 80.4411C100.552 80.4252 100.567 80.4165 100.575 80.4006C100.748 80.2632 100.864 80.0473 100.875 79.7686C100.974 77.298 101.072 74.8273 101.179 72.3559C101.265 72.3225 101.353 72.29 101.439 72.2566C104.639 71.2246 108.656 71.6422 110.914 68.6626C111.046 68.4864 111.122 68.2863 111.127 68.0878C111.331 67.8941 111.43 67.5829 111.369 67.2661C111.008 65.4052 110.648 63.553 110.286 61.6921C110.547 61.5928 110.807 61.4857 111.061 61.4031C114.568 60.2257 119.329 58.9968 119.972 54.6517ZM98.1896 75.4109C98.3198 74.5598 98.8176 73.8611 99.4686 73.3276C99.4043 74.8845 99.34 76.4422 99.2757 78.007C98.5747 77.2869 98.038 76.4374 98.1896 75.4109ZM105.991 65.5219C105.983 65.506 105.976 65.4981 105.967 65.4822V65.4743C105.982 65.4346 105.989 65.3949 105.989 65.3465C105.996 65.275 105.995 65.2035 106.002 65.1321C106.002 65.1242 106.002 65.1242 106.002 65.1162C106.093 64.8526 106.288 64.5565 106.365 64.4358C106.939 63.5379 107.787 62.898 108.724 62.3923C108.99 63.7221 109.248 65.0606 109.505 66.3904C108.716 66.2039 107.928 66.0245 107.139 65.8379C106.877 65.7783 106.137 65.7656 105.991 65.5219ZM38.4653 118.43C38.3002 116.369 37.9763 114.325 37.5015 112.307C38.0335 112.323 38.5582 112.331 39.0822 112.34C40.2262 112.371 41.6457 112.286 42.6715 112.914C43.8171 113.627 42.7509 114.532 42.0117 115.044C40.6287 116 39.4387 117.122 38.4653 118.43ZM24.6981 79.22C24.7315 79.3463 24.7807 79.4487 24.8458 79.5352C24.4361 80.8436 23.0682 81.7685 22.0242 82.5386C21.5376 82.903 21.0668 83.2912 20.6278 83.6945C20.7389 80.9936 20.723 78.2935 20.5555 75.5887C22.3831 76.2445 24.2154 77.2257 24.6981 79.22ZM5.64746 69.9257C4.80512 69.867 3.93737 69.7527 3.12441 69.5105C2.74174 69.4049 2.29477 69.2366 2.02802 68.931C3.95722 67.2828 6.88676 68.3673 8.92631 69.3771C9.14226 69.4851 9.3582 69.5931 9.58208 69.7011C8.29197 69.9424 6.97488 70.017 5.64746 69.9257ZM26.9528 95.3523C28.181 96.255 29.1345 97.3847 29.2623 99.0503C29.3616 100.39 29.0075 101.658 28.493 102.881C28.1064 100.345 27.5848 97.8364 26.9528 95.3523ZM57.2096 145.157C56.7078 145.593 56.1902 146.022 55.6964 146.466C55.8702 144.287 56.0528 142.126 56.2434 139.955C57.0444 140.443 57.8772 140.884 58.7085 141.308C58.7085 141.316 58.7172 141.332 58.7251 141.34C58.8069 141.473 58.8641 141.615 58.9062 141.75C58.8617 141.965 58.9046 142.163 59.0022 142.336C58.9863 143.44 58.009 144.479 57.2096 145.157Z" fill="#FFFDFE"/>
<path d="M63.7832 1.58746C68.6999 3.27452 72.1741 7.55132 74.2374 12.1727C76.7748 17.8555 77.2551 24.2147 78.1133 30.3016C78.8953 35.8431 80.002 41.51 82.9054 46.3783C84.3042 48.7235 86.1167 50.8925 88.4135 52.4017C90.2808 53.6275 93.1571 54.6675 94.3948 52.0706C94.9831 50.8361 95.0546 49.3356 95.1951 47.9963C95.3745 46.2862 95.4539 44.5682 95.5468 42.8526C95.7326 39.3975 96.0025 35.9416 97.222 32.6722C97.5348 31.8339 96.1367 31.2892 95.7548 32.1006C94.4417 34.8865 93.3223 37.7556 92.387 40.6891C90.8071 40.6796 89.1161 40.5296 87.834 39.5443C86.5907 38.5893 86.0278 37.0189 85.5904 35.574C84.4471 31.7926 83.4571 27.9604 82.3838 24.1583C81.3739 20.5826 80.2886 17.0012 78.592 13.6819C76.9883 10.5436 74.8456 7.69898 72.3217 5.24262C72.0828 5.01001 71.8073 4.98699 71.5651 5.06956C69.5518 2.83232 67.078 1.04601 64.1635 0.0464811C63.1981 -0.285374 62.8218 1.2572 63.7832 1.58746Z" fill="#E5E5E5"/>
<path d="M116.558 51.4998C115.56 50.3304 114.979 48.8244 114.391 47.4231C113.006 44.1173 111.735 40.7638 110.567 37.3754C110.42 36.949 110.04 36.8061 109.689 36.849C109.277 34.3879 108.649 31.918 106.884 30.0611C106.179 29.3196 105.074 30.4604 105.778 31.2003C107.787 33.3129 108.125 36.6331 108.472 39.3943C108.879 42.6398 108.992 45.9226 108.804 49.188C108.727 50.5209 108.689 51.9198 108.276 53.2012C108.109 53.718 107.864 54.2761 107.444 54.6421C107.047 54.9875 106.565 55.0049 106.095 55.1844C106.023 52.6899 105.859 50.1978 105.586 47.7169C105.311 45.22 104.988 42.7549 103.92 40.4557C103.426 39.3919 102.063 39.9278 101.737 40.7741C100.75 43.3313 100.4 46.0401 100.035 48.7402C99.9601 49.292 99.8855 49.8437 99.8108 50.3955C99.6648 50.5749 99.5655 50.806 99.5449 51.0878C99.3162 54.2309 98.7256 57.3406 97.7903 60.3504C97.3203 61.8628 96.7646 63.3458 96.1168 64.7907C95.6111 65.9188 95.0799 67.1097 94.2336 68.0291C93.9812 68.3037 93.6596 68.5078 93.3254 68.6967C93.504 65.0289 93.5874 61.3507 93.2 57.7233C93.0396 56.2165 90.8579 56.2022 90.8182 57.7582C90.6309 65.2234 90.1807 72.6782 89.4868 80.1124C89.4582 79.7678 89.4305 79.424 89.3995 79.0803C89.1653 76.4628 88.9311 73.8444 88.6969 71.2269C88.6096 70.2472 87.7029 69.9106 87.0329 70.194C86.4057 70.2068 85.738 70.7156 85.7491 71.4071C85.8404 76.8272 85.9317 82.2472 86.0222 87.668C86.0492 89.2844 86.0762 90.9016 86.104 92.518C85.8777 93.6239 85.58 94.7187 85.1743 95.7969C84.5717 97.3998 83.6421 99.175 82.0336 99.9594C80.5942 100.661 78.935 100.323 77.594 99.56C74.2898 97.68 73.4435 93.5406 72.7599 90.1101C71.7596 85.0894 70.9554 80.0274 70.7767 74.9043C70.7513 74.17 70.19 73.7984 69.6192 73.7762C69.1087 72.8552 67.3788 73.0672 67.3836 74.378C67.4185 83.7501 67.4534 93.1222 67.4884 102.494C67.5138 109.333 67.7472 116.281 67.3074 123.147C66.8112 123.275 66.2776 123.277 65.8283 123.138C64.5898 122.755 63.6951 121.621 63.2012 120.467C62.4986 118.827 62.4732 116.967 62.4113 115.215C62.3454 113.371 62.2843 111.527 62.2208 109.682C61.9572 102.042 61.6936 94.4004 61.43 86.7598C61.4102 86.1763 61.0513 85.8206 60.6186 85.688C60.0375 85.037 58.5743 85.3228 58.4703 86.5026C57.4382 98.2437 56.792 110.016 56.5237 121.798C55.6281 120.89 55.4971 118.394 55.3725 117.582C55.0176 115.26 54.7191 112.929 54.469 110.593C53.9752 105.975 53.6838 101.338 53.5806 96.6948C53.5743 96.3987 53.479 96.1621 53.3313 95.9827C53.3313 95.9803 53.3313 95.9771 53.3313 95.9747C53.3186 94.6679 51.16 94.3313 50.9846 95.7072L49.8755 104.365C48.7036 103.142 48.6949 100.754 48.556 99.2345C48.3122 96.5654 48.0923 93.8947 47.8954 91.2216C47.4969 85.8103 47.1968 80.3926 46.9888 74.971C46.93 73.4396 44.5483 73.4705 44.6071 75.0059C44.7206 77.9585 44.8619 80.9103 45.031 83.8604C44.6063 83.993 44.2704 84.3574 44.2927 84.9648C44.4578 89.4273 44.2855 93.8899 43.9711 98.3421C43.802 100.735 43.6671 103.156 43.4313 105.56C42.8001 105.349 42.0475 105.275 41.4918 105.034C38.6321 103.793 36.5759 101.064 35.5414 98.1897C34.2354 94.5623 34.1822 90.6642 34.0536 86.8559C33.9171 82.8363 33.6797 78.8215 33.382 74.8106C33.216 72.5663 33.0414 70.3211 32.8365 68.0799C32.6468 65.9974 32.3761 63.9214 31.6052 61.9644C31.4448 61.5579 31.0717 61.4158 30.7263 61.4491C30.3969 61.0577 29.7268 61.1284 29.4259 61.5825C29.0671 62.1239 28.5367 62.9607 27.8706 63.1687C27.0839 63.4148 26.525 62.7877 26.0986 62.22C25.1721 60.9855 24.5584 59.5064 24.0003 58.0798C22.7706 54.9351 21.5932 51.7682 20.3912 48.6124C20.2459 48.2321 19.9141 48.0789 19.5901 48.0852C19.1265 47.8836 18.493 48.1424 18.4493 48.6664C18.1413 48.8156 17.9126 49.1276 18.0174 49.5548C20.0387 57.7519 21.8973 65.9871 23.6065 74.2549C22.3418 73.3109 21.1692 72.2582 20.3785 70.8593C19.3694 69.0754 18.9725 67.0176 18.5978 65.0249C17.7038 60.2718 16.8313 55.5138 15.9485 50.7583C15.8484 50.2201 15.3681 50.1026 14.9688 50.2542C14.6314 49.9342 14.0074 49.8684 13.6842 50.386C12.6275 52.0802 11.8448 53.9467 11.4351 55.9044C11.0437 57.7733 11.104 60.0566 9.69246 61.519C8.33964 62.9202 6.36201 63.0711 4.61541 63.653C3.0387 64.1778 1.54217 65.3933 1.71048 67.2161C1.74621 67.6035 1.95739 67.8465 2.31386 67.9751C4.46139 68.7499 6.60891 69.5264 8.75723 70.2996C10.619 70.9697 12.4743 71.5778 14.4528 71.7184C17.2997 74.0239 20.6969 75.3449 24.1107 76.5842C24.1186 76.6088 24.1353 76.6223 24.1448 76.6446C24.1877 77.1709 24.2337 77.6973 24.2734 78.2244C23.8844 79.6368 23.3493 80.9968 22.6332 82.2853C22.1767 83.107 21.6623 83.8977 21.0819 84.6369C20.7254 85.091 20.2761 85.5197 20.0927 86.0707C19.6934 86.2628 19.4298 86.7582 19.7203 87.1821C21.752 90.145 24.2814 92.6633 27.245 94.6925C27.3538 94.7672 27.4626 94.7981 27.5697 94.8084C27.6078 94.9244 27.6507 95.0363 27.6841 95.1554C27.7531 95.4023 27.9246 95.5547 28.1263 95.6373C29.1472 100.14 26.9187 105.404 30.2603 109.3C33.3097 112.857 38.301 111.23 42.2285 112.646C41.5767 114.827 40.5367 116.828 38.729 118.37C38.4439 118.614 38.2248 118.873 38.0454 119.139C37.6413 119.338 37.3436 119.755 37.3658 120.222C37.473 122.479 39.3998 124.093 41.3616 124.887C42.9526 125.531 44.6674 125.765 46.3513 125.541C48.5568 126.815 50.355 128.749 51.3418 131.158C51.5363 131.633 51.9563 131.897 52.3874 131.959C52.6295 133.456 53.0741 134.917 53.8514 136.31C54.7937 138 56.2164 139.498 58.0043 140.29C58.795 140.64 59.7755 140.892 60.5623 140.376C61.3451 139.862 61.3975 139.072 61.3054 138.27L64.3357 135.881C64.7764 135.533 65.2273 135.191 65.6767 134.846C66.5635 134.484 67.3478 134.022 67.9258 133.276C68.9428 132.779 69.7319 131.916 70.19 130.793C70.98 128.855 70.5163 126.755 70.0185 124.805C69.9781 124.647 69.9098 124.513 69.8217 124.401C70.0773 124.174 70.3075 123.914 70.5116 123.627C70.5798 123.576 70.6465 123.518 70.7093 123.446C73.1243 120.645 76.173 118.533 79.667 117.31C81.4413 116.689 83.1927 116.069 84.5114 114.662C85.703 113.39 86.4509 111.787 86.9939 110.148C87.5838 108.37 87.9371 106.53 88.157 104.669C88.3531 104.449 88.5611 104.237 88.7421 104.008C90.1513 102.227 90.846 100.213 90.9143 97.9436C90.9865 95.515 90.4252 93.092 90.7777 90.669C91.0143 89.0478 91.5018 87.4823 91.9162 85.9C91.9257 85.8936 91.9368 85.892 91.9456 85.8857L98.3818 81.1849C98.9844 80.7451 99.221 79.8734 98.6081 79.3034C96.6773 77.5099 97.2576 75.0742 97.6395 72.7433C97.6673 72.5734 97.6998 72.4051 97.7284 72.2352C97.9015 72.2725 98.0889 72.2765 98.2873 72.2233C101.792 71.2809 105.255 70.1925 108.669 68.9587C109.515 68.6531 109.844 67.6329 109.179 66.9565C108.484 66.2499 107.551 66.1268 106.798 65.5497C106.229 65.113 106.086 64.3667 106.044 63.6633C106.287 63.6403 106.53 63.5165 106.689 63.2846C108.298 60.9521 111.377 60.3813 113.816 59.3087C115.756 58.4561 118.763 56.6491 118.696 54.1578C118.662 52.8455 117.311 52.3819 116.558 51.4998Z" fill="#E5E5E5"/>
<path d="M59.0016 142.336C58.9858 143.44 58.0092 144.479 57.209 145.157C56.7072 145.593 56.1896 146.022 55.6958 146.466C55.8697 144.287 56.0523 142.126 56.2428 139.955C57.0439 140.443 57.8767 140.884 58.7079 141.308C58.7079 141.316 58.7166 141.332 58.7246 141.34C58.8063 141.473 58.8635 141.615 58.9056 141.75C58.8611 141.965 58.904 142.163 59.0016 142.336Z" fill="#C2CAC2"/>
<path d="M24.845 79.5352C24.4353 80.8436 23.0674 81.7685 22.0234 82.5386C21.5368 82.903 21.066 83.2912 20.6269 83.6945C20.7381 80.9936 20.7222 78.2935 20.5547 75.5887C22.3823 76.2445 24.2154 77.2257 24.6973 79.2192C24.7315 79.3463 24.7807 79.4487 24.845 79.5352Z" fill="#C2CAC2"/>
<path d="M109.506 66.3904C108.717 66.2038 107.929 66.0244 107.139 65.8378C106.877 65.7783 106.137 65.7656 105.991 65.5211C105.983 65.5052 105.976 65.4973 105.967 65.4814V65.4734C105.982 65.4337 105.989 65.394 105.989 65.3456C105.996 65.2742 105.995 65.2027 106.002 65.1313C106.002 65.1233 106.002 65.1233 106.002 65.1154C106.093 64.8518 106.288 64.5557 106.365 64.435C106.939 63.5371 107.787 62.8972 108.724 62.3915C108.99 63.7229 109.248 65.0606 109.506 66.3904Z" fill="#C2CAC2"/>
<path d="M99.4691 73.3276C99.4048 74.8845 99.3405 76.4422 99.2762 78.007C98.5752 77.2869 98.0385 76.4374 98.1901 75.4109C98.3203 74.5598 98.8181 73.8611 99.4691 73.3276Z" fill="#C2CAC2"/>
<path d="M29.2624 99.0503C29.3616 100.39 29.0075 101.658 28.4931 102.881C28.1064 100.346 27.5848 97.8364 26.9529 95.3531C28.1811 96.255 29.1346 97.3847 29.2624 99.0503Z" fill="#C2CAC2"/>
<path d="M42.0117 115.044C40.6287 116.001 39.4378 117.122 38.4653 118.43C38.3001 116.369 37.9762 114.325 37.5015 112.307C38.0334 112.323 38.5582 112.331 39.0821 112.34C40.2262 112.371 41.6457 112.286 42.6714 112.914C43.817 113.627 42.7508 114.532 42.0117 115.044Z" fill="#C2CAC2"/>
<path d="M89.1162 48.1519C84.4647 40.1691 83.8272 30.8653 81.4986 22.118C79.7084 15.3952 76.6486 8.22296 70.5252 4.36773C64.0254 0.287034 55.4941 1.09603 49.0634 4.9068C42.5383 8.77473 38.136 15.5412 35.6519 22.5808C32.6874 30.9693 32.2087 39.9564 31.8625 48.7672C31.8229 49.8398 30.1477 49.8644 30.1953 48.7918C30.2533 47.3461 30.3112 45.8996 30.393 44.4459C30.4462 43.2304 30.524 42.0221 30.6169 40.8058C31.1504 33.3582 32.2635 25.9415 35.2581 19.0535C38.3528 11.925 43.5751 5.31328 50.8322 2.12573C57.7742 -0.922883 66.1912 -0.911773 72.4679 3.68814C78.5358 8.13246 81.559 15.5119 83.3389 22.5832C84.5798 27.5515 85.3467 32.7008 86.69 37.6596C86.9671 38.6718 87.268 39.6761 87.5998 40.6709C88.3644 42.9542 89.3179 45.1795 90.5564 47.3048C91.0946 48.2337 89.6624 49.0808 89.1162 48.1519Z" fill="#494949"/>
<path d="M93.7931 40.0874C93.7931 40.0874 93.7852 40.0953 93.7931 40.1033C93.7947 40.2065 93.7804 40.3176 93.7344 40.4137C93.6812 40.5971 93.5645 40.7495 93.3914 40.8392C92.9262 41.0687 92.4443 41.2346 91.9457 41.345C90.9565 41.5736 89.9244 41.5577 88.9352 41.2624C88.4644 41.1187 88.0174 40.9266 87.6006 40.6709C86.8234 40.2216 86.1478 39.5888 85.6198 38.8267C85.3602 38.4575 85.5508 37.8986 85.9128 37.6866C86.1645 37.5318 86.4503 37.5437 86.6908 37.6588C86.8345 37.7279 86.9631 37.8375 87.0608 37.9788C87.58 38.733 88.4231 39.3721 89.3322 39.6444C90.2729 39.9246 91.2971 39.9016 92.2053 39.5467C92.3236 39.5055 92.434 39.4562 92.5443 39.3991C92.946 39.203 93.4398 39.2824 93.6844 39.692C93.7574 39.8024 93.7916 39.9524 93.7931 40.0874Z" fill="#494949"/>
<path d="M119.86 54.0578C119.918 54.7636 119.054 55.4273 118.497 54.7604C118.433 54.6818 118.36 54.5961 118.295 54.5175C115.942 51.6777 113.967 48.5632 112.464 45.1867C111.117 42.1579 110.443 38.9838 109.389 35.855C108.401 32.9557 106.393 30.8494 103.252 30.5144C100.286 30.2008 97.5665 31.583 95.9358 34.0529C94.7243 35.8812 94.1273 37.9541 93.7938 40.0874C93.7938 40.0874 93.7859 40.0953 93.7938 40.1033C93.7716 40.2065 93.7573 40.3105 93.7351 40.4137C93.5406 41.7506 93.4334 43.1019 93.3262 44.4293C93.2468 45.4947 91.5796 45.5273 91.659 44.4539C91.7392 43.4282 91.8273 42.3873 91.9464 41.3449C92.0171 40.7408 92.1036 40.1437 92.206 39.5467C92.6442 36.9832 93.4334 34.511 95.0784 32.4063C98.9042 27.4825 107.108 27.5761 110.122 33.3272C110.956 34.919 111.378 36.6751 111.841 38.3995C112.337 40.2581 112.936 42.0912 113.692 43.8585C115.189 47.362 117.207 50.6432 119.656 53.568C119.783 53.7252 119.841 53.8911 119.86 54.0578Z" fill="#494949"/>
<path d="M119.972 54.6517C120.009 54.4207 119.958 54.215 119.86 54.0578C119.486 53.4838 118.477 53.4195 118.354 54.2468C118.34 54.342 118.325 54.4302 118.295 54.5175C117.872 56.5404 116.08 57.8297 114.242 58.5791C112.103 59.4604 109.79 59.8677 107.759 61.0172C107.231 61.3189 106.65 61.7167 106.11 62.1851C105.193 62.9925 104.406 64.0206 104.327 65.1575C104.322 65.3004 104.323 65.4433 104.334 65.5941C104.334 65.6021 104.334 65.61 104.334 65.61L104.335 65.6418C104.455 66.8469 105.461 67.1653 106.48 67.4043C107.405 67.6131 108.329 67.8298 109.245 68.0386C109.62 68.1283 109.994 68.2101 110.368 68.2998C110.679 68.3744 110.948 68.2752 111.127 68.0902C111.331 67.8965 111.43 67.5853 111.369 67.2685C111.008 65.4076 110.648 63.5554 110.286 61.6944C110.547 61.5952 110.807 61.488 111.061 61.4055C114.568 60.2257 119.329 58.9968 119.972 54.6517ZM107.139 65.8379C106.877 65.7783 106.137 65.7656 105.991 65.5211C105.983 65.5052 105.976 65.4973 105.967 65.4814V65.4735C105.933 65.3869 105.956 65.2671 106.002 65.1313C106.002 65.1234 106.002 65.1234 106.002 65.1154C106.093 64.8518 106.288 64.5557 106.365 64.435C106.939 63.5371 107.787 62.8972 108.724 62.3915C108.99 63.7213 109.248 65.0598 109.505 66.3896C108.717 66.2039 107.929 66.0252 107.139 65.8379Z" fill="#494949"/>
<path d="M104.869 43.5536C104.838 43.1185 104.491 42.7049 104.023 42.7319C103.593 42.7565 103.168 43.113 103.201 43.5782C103.303 44.9834 103.405 46.3894 103.506 47.7947C103.537 48.2297 103.885 48.6434 104.352 48.6164C104.782 48.5918 105.208 48.2353 105.174 47.7701C105.073 46.3641 104.971 44.9588 104.869 43.5536Z" fill="#494949"/>
<path d="M106.109 62.1851C106.091 63.1616 106.058 64.1389 106.001 65.1162C106.001 65.1241 106.001 65.1241 106.001 65.1321C105.994 65.2035 105.995 65.275 105.988 65.3464C105.989 65.3941 105.982 65.4338 105.966 65.4743V65.4822C105.796 66.3341 104.503 66.3928 104.332 65.6092C104.332 65.6092 104.332 65.6013 104.332 65.5933C104.315 65.5298 104.306 65.4512 104.313 65.3711C104.32 65.2996 104.319 65.2281 104.326 65.1567C104.604 60.3408 104.438 55.5242 103.843 50.7448C103.708 49.6746 105.375 49.6659 105.51 50.7202C105.987 54.5246 106.187 58.3569 106.109 62.1851Z" fill="#494949"/>
<path d="M110.896 67.4821C110.606 67.2002 109.994 67.1463 109.721 67.4995C109.573 67.6925 109.416 67.8774 109.244 68.0386C106.647 70.626 102.057 69.5502 99.0615 71.5477H99.0536C97.7246 72.4329 96.6107 73.8707 96.5075 75.5077V75.5157C96.4932 75.6427 96.4948 75.7618 96.4972 75.8888C96.5527 77.5235 97.6118 78.7786 98.794 79.8171C99.0115 80.0124 99.2362 80.1997 99.4608 80.3791C99.8141 80.6681 100.275 80.6451 100.573 80.4022C100.745 80.2648 100.861 80.0489 100.873 79.7702C100.972 77.2996 101.07 74.8289 101.176 72.3575C101.263 72.3241 101.35 72.2916 101.437 72.2582C104.637 71.2262 108.654 71.6438 110.911 68.6642C111.044 68.488 111.12 68.2879 111.125 68.0894C111.147 67.8751 111.073 67.6615 110.896 67.4821ZM98.1898 75.4109C98.32 74.5598 98.8178 73.8611 99.4688 73.3276C99.4045 74.8845 99.3402 76.4422 99.2759 78.007C98.5748 77.2869 98.0382 76.4374 98.1898 75.4109Z" fill="#494949"/>
<path d="M100.611 52.4343C99.7446 60.0677 98.3719 67.6329 96.4998 75.0838C96.2387 76.1246 97.8574 76.5271 98.1194 75.4831C99.9915 68.0322 101.364 60.4671 102.23 52.8328C102.35 51.7825 100.732 51.3681 100.611 52.4343Z" fill="#494949"/>
<path d="M100.574 80.4022C100.566 80.418 100.55 80.426 100.543 80.4426C99.0974 82.0043 97.1896 82.9379 95.4358 84.0986C93.3836 85.4387 92.0903 87.1655 91.8974 89.6687C91.5512 94.2075 93.8988 99.4131 90.6867 103.399C90.562 103.551 90.4128 103.649 90.254 103.691C89.5664 103.9 88.7305 103.189 89.2759 102.514C89.3775 102.386 89.4704 102.257 89.5641 102.129C92.2697 98.2143 89.6331 92.8388 90.3937 88.4286C90.408 88.3095 90.4302 88.1976 90.4525 88.0785C90.7271 86.8042 91.3067 85.7237 92.103 84.7988C92.6881 84.0915 93.4018 83.4778 94.1957 82.9339C95.7288 81.8788 97.4158 81.0603 98.7949 79.817C99.0068 79.6313 99.218 79.4296 99.4133 79.2121C100.132 78.4309 101.229 79.6138 100.574 80.4022Z" fill="#494949"/>
<path d="M91.1963 64.3437C90.9017 72.2423 90.608 80.1409 90.3134 88.0396C90.2737 89.1145 91.941 89.0859 91.9814 88.0149C92.276 80.1163 92.5697 72.2177 92.8643 64.3191C92.904 63.2441 91.236 63.2727 91.1963 64.3437Z" fill="#494949"/>
<path d="M92.1829 56.3776C91.724 56.4038 91.3635 56.7579 91.3612 57.224L91.3477 59.6081C91.3453 60.0447 91.7502 60.4552 92.194 60.4298C92.6529 60.4036 93.0133 60.0495 93.0157 59.5835L93.0292 57.1993C93.0315 56.7619 92.6259 56.3522 92.1829 56.3776Z" fill="#494949"/>
<path d="M32.1196 41.4426C31.7313 42.5517 31.1423 43.5695 30.3936 44.446C29.3869 45.6281 28.0825 46.5522 26.59 47.0984C26.4876 47.1397 26.3844 47.1731 26.2819 47.2064C25.8397 47.3557 25.3904 47.0452 25.257 46.6261C25.1324 46.2466 25.357 45.8464 25.6952 45.6591C25.7429 45.6345 25.7897 45.6178 25.8373 45.6011C25.9874 45.5511 26.1374 45.5011 26.2796 45.4439C26.3034 45.436 26.4058 45.3947 26.4137 45.3868C26.4772 45.3621 26.532 45.3375 26.5876 45.3129C26.8639 45.1819 27.1235 45.0351 27.3831 44.8802C27.6268 44.7254 27.8706 44.5635 28.0984 44.3856C28.1294 44.3539 28.1849 44.3126 28.1921 44.3047C28.2548 44.2562 28.3096 44.1999 28.3723 44.1514C28.4819 44.0546 28.5843 43.9577 28.6859 43.8529C28.905 43.6433 29.1083 43.4258 29.2956 43.1932C29.3504 43.1289 29.3972 43.0646 29.4441 43.0082C29.4671 42.9765 29.4671 42.9764 29.475 42.9677C29.483 42.9518 29.483 42.9598 29.4981 42.936C29.5917 42.8073 29.6767 42.6716 29.7624 42.543C29.918 42.3024 30.057 42.046 30.188 41.7903C30.257 41.6466 30.3269 41.5022 30.388 41.3585C30.388 41.3585 30.4341 41.2386 30.442 41.2227C30.4651 41.1671 30.4801 41.1108 30.5032 41.0472C30.5333 40.9591 30.5722 40.8797 30.6191 40.8075C30.8136 40.5185 31.1288 40.3637 31.5106 40.4367C31.9235 40.5169 32.2641 41.0361 32.1196 41.4426Z" fill="#494949"/>
<path d="M27.1697 49.8453C24.6134 48.2393 24.0219 45.2788 22.4936 42.8796C20.624 39.9532 17.0498 40.4034 14.2258 41.6442C11.4567 42.8685 9.13051 45.0382 7.78166 47.7502C6.13906 51.0457 5.87866 54.8843 5.04902 58.4219C4.38452 61.2586 3.51995 64.05 2.48072 66.7731C2.26716 67.3558 2.03692 67.9306 1.79954 68.5062C1.72333 68.7055 1.63917 68.9135 1.55422 69.1135C1.30891 69.6971 0.704738 69.6502 0.334776 69.3223C0.310958 69.2985 0.278411 69.2755 0.262533 69.2437C0.0450017 69.0087 -0.0637663 68.6689 0.0902524 68.3093C1.90831 63.9793 3.21509 59.4739 4.09156 54.8636C4.76877 51.2728 5.46979 47.6653 7.74434 44.6865C9.6529 42.1809 12.4117 40.2978 15.4564 39.4515C18.4534 38.6131 21.6171 38.8679 23.5781 41.5228C24.4609 42.7248 24.9921 44.2729 25.6955 45.6598C25.9654 46.1719 26.2504 46.6602 26.5902 47.1C26.9705 47.6025 27.4143 48.0408 27.9668 48.3893C28.8798 48.9546 28.0756 50.4193 27.1697 49.8453Z" fill="#494949"/>
<path d="M17.3928 71.1412C16.6901 71.3896 15.9923 71.4873 15.3016 71.4817C14.4918 71.4857 13.6955 71.3388 12.9143 71.0959H12.9064C12.5793 70.9975 12.2601 70.8831 11.941 70.7609C11.933 70.7609 11.9251 70.7529 11.9172 70.7529C11.5258 70.5997 11.1423 70.4386 10.7581 70.2544C10.3667 70.0773 9.97446 69.8923 9.59101 69.7002C9.59101 69.7002 9.591 69.7002 9.58306 69.7002C9.35918 69.5922 9.14324 69.4843 8.9273 69.3763C6.88774 68.3664 3.95741 67.282 2.029 68.9301C1.85593 69.0675 1.69239 69.2286 1.53598 69.4215C1.1692 69.8717 0.659507 69.7359 0.368142 69.3914C0.327652 69.3445 0.287166 69.2977 0.262555 69.2421C0.0998034 68.9587 0.0704249 68.5776 0.335591 68.2561C0.928642 67.5328 1.66778 67.0533 2.48153 66.7715C4.1162 66.1919 6.05731 66.4015 7.67768 67.0041C10.3762 68.0124 13.1961 70.2496 16.1892 69.697C15.0301 64.3389 14.291 58.8951 14.0115 53.4203C13.9559 52.3414 15.6231 52.3247 15.6787 53.3957C15.9605 59.0205 16.7259 64.6152 17.9739 70.1154C18.0835 70.5759 17.835 70.984 17.3928 71.1412Z" fill="#494949"/>
<path d="M11.9162 70.7537C11.8924 70.7704 11.8694 70.7942 11.8455 70.8101L11.8376 70.818C11.767 70.8665 11.6725 70.9078 11.5693 70.9411C9.41062 71.5683 7.14321 71.7763 4.90836 71.5238C3.29354 71.3412 1.1214 71.0237 0.367187 69.3914C0.351309 69.3676 0.342576 69.3438 0.334637 69.3207C0.285414 69.2263 0.252073 69.123 0.218729 69.0127C-0.0821634 68.0084 1.44373 67.5575 1.7994 68.5054C1.80734 68.5213 1.81607 68.5451 1.82401 68.5681C1.86609 68.7023 1.93913 68.8285 2.02805 68.9301C2.2948 69.2358 2.74177 69.4041 3.12444 69.5097C3.9382 69.7518 4.80515 69.8662 5.64749 69.9249C6.97491 70.0162 8.292 69.9416 9.58211 69.7002C9.59005 69.7002 9.59005 69.7002 9.59005 69.7002C10.0807 69.6057 10.5634 69.4954 11.0461 69.3612C11.0699 69.3533 11.1017 69.3445 11.1255 69.3358C12.0186 69.0691 12.4727 70.2377 11.9162 70.7537Z" fill="#494949"/>
<path d="M11.9402 70.7617C11.9093 70.7863 11.8775 70.8022 11.8457 70.8109L11.8378 70.8189C11.7513 70.8522 11.656 70.8689 11.5449 70.8705C11.0923 70.8768 10.8264 70.587 10.7573 70.2552C10.6731 69.9313 10.7708 69.5565 11.0455 69.362C11.163 69.2652 11.3289 69.2072 11.5195 69.204C12.4412 69.1898 12.5865 70.4108 11.9402 70.7617Z" fill="#494949"/>
<path d="M25.5485 79.8028C25.2793 79.8385 25.0157 79.7551 24.8458 79.5352C24.7807 79.4487 24.7315 79.3463 24.6982 79.22C24.2163 77.2265 22.3831 76.2452 20.5556 75.5895C20.1006 75.4212 19.6537 75.2775 19.2234 75.1409C19.0956 75.1028 18.9757 75.0655 18.8486 75.0194C16.5987 74.2986 14.3067 73.403 13.0055 71.3023C12.965 71.2317 12.9316 71.1682 12.915 71.0975H12.907C12.649 70.2758 13.9177 69.6216 14.4456 70.4632C14.6894 70.8562 14.9807 71.1936 15.3023 71.4826C16.8234 72.8656 19.1083 73.2998 20.9922 73.9715C22.2132 74.4057 23.4533 75.0067 24.4418 75.8499C25.165 76.4588 25.7477 77.2043 26.0947 78.1125C26.1772 78.3261 26.2439 78.5468 26.3027 78.7762C26.4464 79.3526 26.0081 79.7559 25.5485 79.8028Z" fill="#494949"/>
<path d="M20.2734 50.8981C20.0718 50.1891 19.8701 49.4801 19.6693 48.7704C19.5502 48.3504 19.0722 48.0503 18.6419 48.19C18.214 48.329 17.9346 48.7688 18.0616 49.2174C18.2633 49.9263 18.4641 50.6353 18.6658 51.345C18.7849 51.765 19.2628 52.0651 19.6931 51.9254C20.121 51.7857 20.4005 51.3466 20.2734 50.8981Z" fill="#494949"/>
<path d="M21.1772 54.3762C20.8961 53.3377 19.29 53.7863 19.5703 54.8231C21.7464 62.879 23.5843 71.0221 25.0776 79.2327C25.2698 80.291 26.8758 79.8337 26.6845 78.7857C25.1912 70.5751 23.3541 62.432 21.1772 54.3762Z" fill="#494949"/>
<path d="M26.6375 78.8739C26.624 79.0565 26.6026 79.224 26.574 79.3907V79.3987C26.2874 80.9905 25.1862 82.198 23.9144 83.2015C22.6426 84.1971 20.9333 85.1196 20.426 86.7622C20.426 86.7701 20.418 86.786 20.4109 86.7939C20.1211 87.6236 18.6992 87.5497 18.7802 86.5796C18.7865 86.5002 18.7937 86.4208 18.8008 86.3414C19.0946 82.5735 19.1104 78.7937 18.8477 75.0187C18.8365 74.8202 18.8183 74.6225 18.8072 74.424C18.7278 73.353 20.395 73.3364 20.4744 74.3994C20.5038 74.7956 20.5339 75.1925 20.5554 75.5895C20.7221 78.2943 20.7388 80.9936 20.6276 83.6953C21.0666 83.292 21.5366 82.9038 22.0241 82.5394C23.0689 81.7693 24.4368 80.8444 24.8457 79.536C24.9139 79.3288 24.9505 79.1216 24.9632 78.8993C24.9703 78.8437 24.9774 78.7882 24.9846 78.7405V78.7326C25.1196 78.2142 25.665 78.0077 26.0945 78.1125C26.4136 78.1943 26.6629 78.4444 26.6375 78.8739Z" fill="#494949"/>
<path d="M29.3082 95.1824C29.1471 95.0021 28.9692 94.8219 28.7843 94.6584C27.3687 93.4088 25.5951 92.6887 24.0549 91.6153C22.3623 90.4332 21.0984 88.7374 20.4109 86.7939C20.3783 86.7153 20.345 86.6359 20.3196 86.5494C20.0703 85.8063 19.1263 85.8523 18.8 86.3414C18.6675 86.5097 18.623 86.7328 18.7143 87.0019C19.2875 88.7406 20.2164 90.322 21.5065 91.6376C22.4981 92.6474 23.6834 93.3683 24.8933 94.0725C25.9246 97.7729 26.7026 101.533 27.1639 105.345C27.1814 105.464 27.1909 105.575 27.2084 105.694C27.2989 106.462 28.3532 106.884 28.7779 106.084C28.7859 106.068 28.7938 106.06 28.8009 106.044C29.8283 104.092 30.8461 102.059 30.9397 99.8109L30.9381 99.7156C30.9461 99.7156 30.9461 99.7077 30.9381 99.6997C30.9858 98.0079 30.4221 96.4209 29.3082 95.1824ZM28.4929 102.88C28.1063 100.345 27.5847 97.8356 26.9527 95.3523C28.1809 96.2549 29.1344 97.3847 29.2622 99.0503C29.3614 100.39 29.0074 101.658 28.4929 102.88Z" fill="#494949"/>
<path d="M44.793 113.041C44.608 112.369 44.1404 111.876 43.564 111.52C43.2433 111.318 42.8916 111.164 42.5327 111.05C41.2482 110.633 39.7961 110.686 38.4615 110.666C36.9603 110.633 35.436 110.647 33.9474 110.36C31.7173 109.916 29.1402 108.493 28.802 106.045C28.7766 105.941 28.7671 105.839 28.7576 105.736C28.6964 104.824 27.4802 104.699 27.1642 105.347C27.1102 105.459 27.0808 105.602 27.0912 105.76C27.238 108.18 28.9179 110.077 31.0297 111.134C32.5334 111.882 34.1649 112.136 35.8099 112.246C35.8186 112.294 35.8035 112.341 35.8202 112.397C36.53 115.284 36.8991 118.233 36.9349 121.209C36.9388 121.471 37.069 121.684 37.2619 121.832C37.6478 122.128 38.267 122.126 38.5052 121.599C38.5894 121.407 38.6823 121.216 38.7823 121.023C39.2912 119.999 39.9446 119.053 40.7417 118.215C41.6491 117.273 42.7749 116.661 43.7553 115.805C44.2182 115.401 44.5913 114.895 44.758 114.337C44.766 114.337 44.766 114.329 44.766 114.329C44.8938 113.921 44.9192 113.492 44.793 113.041ZM42.0119 115.044C40.6289 116.001 39.4381 117.122 38.4655 118.431C38.3004 116.369 37.9765 114.325 37.5017 112.307C38.0336 112.323 38.5584 112.331 39.0824 112.34C40.2264 112.371 41.6459 112.286 42.6716 112.914C43.8173 113.627 42.751 114.532 42.0119 115.044Z" fill="#494949"/>
<path d="M59.9939 141.234C59.9939 141.242 59.9939 141.242 59.986 141.242C59.7597 141.499 59.404 141.64 59.0126 141.463C58.9968 141.463 58.9888 141.455 58.9729 141.448C58.8848 141.402 58.7967 141.355 58.7086 141.309C57.8766 140.884 57.0445 140.444 56.2435 139.956C55.6909 139.622 55.1614 139.265 54.6636 138.875C53.7236 138.143 52.8852 137.298 52.2271 136.267C51.5443 135.206 51.1537 134.013 51.0632 132.751C51.0021 131.839 51.0291 130.989 50.8274 130.206C50.8012 130.072 50.7599 129.929 50.7107 129.803C50.5377 129.352 50.2693 128.936 49.8501 128.537C47.7169 126.544 44.496 126.75 41.8713 125.892C39.8691 125.238 37.8875 123.894 37.2619 121.831C37.1872 121.609 37.1356 121.372 37.1007 121.127C36.9507 120.081 38.5552 119.621 38.706 120.682C38.7235 120.801 38.7409 120.912 38.7822 121.023C39.3681 123.594 42.2778 124.393 44.5952 124.827C46.7531 125.248 49.0538 125.658 50.7584 127.118C50.9187 127.251 51.072 127.391 51.2172 127.549C51.7412 128.088 52.1318 128.702 52.3716 129.39C52.4954 129.706 52.5717 130.03 52.6241 130.37C52.8535 131.923 52.5891 133.404 53.3338 134.861C54.4373 137.005 56.5372 138.3 58.6332 139.388C59.0015 139.589 59.3691 139.774 59.7375 139.96C59.7534 139.968 59.7613 139.975 59.7772 139.983C60.0416 140.122 60.1718 140.335 60.1988 140.556C60.2337 140.793 60.1424 141.041 59.9939 141.234Z" fill="#494949"/>
<path d="M30.5796 61.4309C30.1286 61.4571 29.7515 61.8112 29.7579 62.2772L29.8039 65.3774C29.8103 65.8141 30.2001 66.2245 30.6502 66.1991C31.1012 66.1729 31.4791 65.8188 31.4719 65.3528L31.4259 62.2526C31.4195 61.8151 31.0297 61.4047 30.5796 61.4309Z" fill="#494949"/>
<path d="M29.4902 68.9754C29.4212 79.1883 29.3513 89.4011 29.2822 99.614C29.2751 100.69 30.9423 100.664 30.9503 99.5894C31.0193 89.3765 31.0884 79.1636 31.1583 68.9508C31.1646 67.8758 29.4974 67.902 29.4902 68.9754Z" fill="#494949"/>
<path d="M44.5522 76.5446L43.4987 113.66C43.4685 114.735 45.1357 114.707 45.1667 113.635L46.2202 76.52C46.2504 75.445 44.5824 75.4728 44.5522 76.5446Z" fill="#494949"/>
<path d="M52.9764 97.8697C52.9788 97.4339 52.7009 96.9853 52.2238 96.9615C51.8054 96.9401 51.3179 97.2481 51.3155 97.7133C51.3092 98.9098 51.302 100.106 51.2957 101.303C51.2933 101.739 51.5704 102.188 52.0475 102.212C52.4659 102.233 52.9534 101.925 52.9557 101.46C52.9629 100.263 52.9692 99.0662 52.9764 97.8697Z" fill="#494949"/>
<path d="M52.8616 105.029C52.6957 113.146 52.5297 121.271 52.3717 129.388C52.3662 129.555 52.3686 129.721 52.363 129.888C52.3527 130.785 51.2095 130.827 50.8276 130.205C50.7546 130.095 50.7125 129.96 50.7109 129.802C50.7029 129.778 50.7021 129.762 50.7021 129.738C50.7212 128.865 50.7403 127.991 50.7585 127.117C50.903 119.699 51.0554 112.281 51.1999 104.871C51.215 103.792 52.8775 103.957 52.8616 105.029Z" fill="#494949"/>
<path d="M59.7596 96.3876C59.8112 95.3134 58.1432 95.3436 58.0916 96.4122C57.3826 111.118 57.5898 125.858 58.714 140.537C58.7958 141.604 60.4638 141.585 60.382 140.512C59.2586 125.833 59.0506 111.093 59.7596 96.3876Z" fill="#494949"/>
<path d="M59.6293 86.6732C59.1585 86.7002 58.8251 87.0535 58.8076 87.5195C58.7711 88.4905 58.7346 89.4615 58.6972 90.4324C58.6806 90.8699 59.1101 91.2787 59.5436 91.2541C60.0144 91.2271 60.3478 90.8746 60.3653 90.4078C60.4018 89.4368 60.4383 88.4659 60.4756 87.4949C60.4915 87.0575 60.0628 86.6478 59.6293 86.6732Z" fill="#494949"/>
<path d="M59.1612 145.613C57.9029 146.941 56.0975 147.818 55.3687 149.576C55.0464 150.335 53.7317 149.996 53.7983 149.186C54.0889 145.751 54.3716 142.309 54.6621 138.874C54.6685 138.771 54.6828 138.668 54.6891 138.565C54.7225 138.112 55.0186 137.726 55.51 137.719C55.9229 137.713 56.3889 138.096 56.3555 138.54C56.3151 139.009 56.2746 139.487 56.2412 139.955C56.0507 142.126 55.8689 144.288 55.6942 146.466C56.188 146.022 56.7057 145.593 57.2074 145.157C58.0077 144.479 58.9842 143.44 59.0001 142.336C59.0048 142.137 58.9786 141.947 58.904 141.75C58.8627 141.616 58.8047 141.474 58.723 141.34C58.715 141.332 58.7071 141.316 58.7063 141.308C58.5436 141.024 58.5713 140.754 58.7111 140.546V140.538C58.8968 140.234 59.2835 140.045 59.6423 140.127C59.8416 140.164 60.0337 140.28 60.1639 140.5C60.1719 140.516 60.1885 140.54 60.1965 140.555C60.2536 140.65 60.3021 140.736 60.3433 140.831V140.839C60.4998 141.186 60.5918 141.541 60.6292 141.898C60.7697 143.239 60.0996 144.622 59.1612 145.613Z" fill="#494949"/>
<path d="M90.442 103.49C90.3793 103.554 90.3166 103.618 90.2546 103.691C89.294 104.753 88.8129 106.054 88.4596 107.433C88.377 107.752 88.3024 108.071 88.2357 108.397C87.8864 110.006 87.6093 111.662 86.9075 113.093C85.2276 116.54 81.3287 117.598 78.0451 118.917C75.0219 120.129 71.8589 122.058 71.3905 125.32C71.3762 125.415 71.3619 125.519 71.3556 125.622C71.3223 126.036 71.3286 126.473 71.3826 126.932C71.5922 128.747 71.9844 130.552 70.9285 132.195C70.1441 133.414 68.8857 134.202 67.6496 134.895C66.1142 135.752 64.6494 136.575 63.3895 137.825C62.2161 139.009 61.3071 140.381 60.6307 141.899C60.5616 142.059 60.4925 142.219 60.4234 142.387C60.1321 143.105 59.2874 142.888 59.0015 142.336C58.9039 142.163 58.861 141.964 58.9055 141.75C58.9206 141.702 58.9357 141.646 58.9587 141.59C58.9738 141.551 58.9968 141.502 59.0127 141.463C59.0508 141.374 59.0817 141.287 59.1278 141.199C59.281 140.831 59.4509 140.48 59.6438 140.127C59.6748 140.071 59.7058 140.015 59.7367 139.959C59.8987 139.647 60.0852 139.35 60.271 139.054C60.8609 138.148 61.5397 137.304 62.3145 136.547C63.6761 135.216 65.275 134.32 66.9287 133.39C68.3776 132.575 69.9035 131.583 69.9956 129.756C70.0901 128.103 69.5272 126.547 69.7257 124.917V124.909C69.7614 124.63 69.813 124.351 69.8956 124.073C70.2132 123.004 70.7395 122.091 71.4112 121.295C72.9791 119.422 75.3355 118.212 77.5933 117.305C79.4328 116.571 81.3692 115.971 83.0523 114.905C84.6568 113.897 85.5333 112.455 86.0469 110.677C86.3415 109.656 86.5479 108.589 86.7868 107.538C87.1608 105.953 87.622 104.397 88.6025 103.089C88.7891 102.824 89.0003 102.574 89.2424 102.333C89.344 102.228 89.4544 102.163 89.5647 102.13C90.2912 101.873 91.0994 102.837 90.442 103.49Z" fill="#494949"/>
<path d="M88.6018 103.088C88.5597 104.542 88.5176 105.987 88.4596 107.433C88.4541 107.584 88.4485 107.727 88.4422 107.878C88.4295 108.092 88.3604 108.268 88.2358 108.397C87.7904 108.911 86.7408 108.761 86.7758 107.902C86.7821 107.783 86.7877 107.656 86.7861 107.537C87.2235 96.2954 87.2719 85.0441 86.9544 73.7976C86.9226 72.7258 88.5898 72.7012 88.6216 73.773C88.901 83.5436 88.8947 93.3262 88.6018 103.088Z" fill="#494949"/>
<path d="M71.423 118.373C71.4214 119.341 71.4118 120.318 71.4103 121.295C71.3983 122.637 71.3944 123.979 71.3904 125.321L71.3912 125.392C71.392 125.472 71.3777 125.551 71.3547 125.623C71.1284 126.46 69.7145 126.402 69.724 125.417C69.7216 125.25 69.7272 125.083 69.7248 124.917V124.909C69.7319 122.733 69.7399 120.565 69.7557 118.397C69.7637 117.317 71.4309 117.293 71.423 118.373Z" fill="#494949"/>
<path d="M69.8145 75.2489C69.7676 74.1771 68.0996 74.1985 68.1465 75.2735C68.572 84.9806 69.5295 104.31 69.955 114.017C70.0018 115.089 71.6698 115.067 71.623 113.992C71.1975 104.285 70.24 84.956 69.8145 75.2489Z" fill="#494949"/>
<path d="M51.2091 30.485C49.1243 29.6181 47.3737 31.5687 46.8839 33.5789C46.5933 34.7713 46.5203 36.0734 46.4949 37.3007C46.4679 38.5877 46.5758 39.9127 46.9934 41.129C47.6111 42.9304 49.503 45.6423 51.5751 44.3276C55.1088 42.084 55.2025 32.1467 51.2091 30.485Z" fill="#494949"/>
<path d="M66.8128 45.0716C68.5729 45.1629 69.8392 43.8799 70.4076 42.5842C71.762 39.4975 71.7985 36.0043 70.7053 32.9128C70.2663 31.6711 69.6359 30.1 68.1299 29.5411C66.5587 28.9583 65.2242 30.0206 64.593 31.1876C63.1671 33.821 61.5063 44.7977 66.8128 45.0716Z" fill="#494949"/>
<path d="M38.5431 26.2035C38.135 26.1217 37.723 26.348 37.6182 26.7624C37.3332 27.8881 37.1546 29.0369 37.0648 30.1952C37.0339 30.5954 37.4539 30.9701 37.8405 30.9479C38.2851 30.9225 38.5598 30.5993 38.5931 30.173C38.6042 30.0285 38.6169 29.8848 38.6312 29.7403C38.6376 29.6792 38.6424 29.6165 38.6503 29.5554C38.6257 29.7332 38.6543 29.526 38.6566 29.503C38.6892 29.2362 38.7273 28.9702 38.7718 28.7051C38.8599 28.1747 38.971 27.6492 39.1028 27.1284C39.2005 26.7401 38.9456 26.2844 38.5431 26.2035Z" fill="#494949"/>
<path d="M46.6322 10.2514C42.5197 13.6938 39.6211 18.4803 38.4454 23.7106C38.2302 24.6681 39.7124 25.0396 39.9292 24.0766C41.0518 19.0837 43.8058 14.5997 47.7286 11.3161C48.482 10.6849 47.38 9.62583 46.6322 10.2514Z" fill="#494949"/>
<path d="M60.5909 53.9284C60.3582 53.6672 59.9248 53.6506 59.6358 53.8133C59.3738 53.961 59.1904 54.2071 59.0943 54.4841C59.0435 54.535 58.9895 54.5842 58.9554 54.6533C58.4235 55.7131 58.6347 57.0795 59.5231 57.8869C59.824 58.1608 60.3606 58.2076 60.6456 57.8702C61.6094 56.7309 61.5848 55.0399 60.5909 53.9284Z" fill="#494949"/>
</svg>
